<mxfile host="app.diagrams.net" modified="2023-09-26T10:52:26.145Z" agent="Mozilla/5.0 (Windows NT 10.0; Win64; x64) AppleWebKit/537.36 (KHTML, like Gecko) Chrome/116.0.0.0 Safari/537.36" etag="wrQe04MAzOx_GvN6Y0VH" version="21.8.0" type="github">
  <diagram name="第 1 页" id="yUYgse8BNOvUejErMFq_">
    <mxGraphModel dx="1420" dy="744" grid="1" gridSize="10" guides="1" tooltips="1" connect="1" arrows="1" fold="1" page="1" pageScale="1" pageWidth="827" pageHeight="1169" math="0" shadow="0">
      <root>
        <mxCell id="0" />
        <mxCell id="1" parent="0" />
        <mxCell id="o6DXtAT2TfRtDLdUKLML-1" value="" style="rounded=0;whiteSpace=wrap;html=1;" vertex="1" parent="1">
          <mxGeometry x="150" y="90" width="600" height="170" as="geometry" />
        </mxCell>
        <mxCell id="o6DXtAT2TfRtDLdUKLML-2" value="Github" style="text;html=1;strokeColor=none;fillColor=none;align=center;verticalAlign=middle;whiteSpace=wrap;rounded=0;fontStyle=1;fontSize=16;" vertex="1" parent="1">
          <mxGeometry x="425" y="100" width="60" height="30" as="geometry" />
        </mxCell>
        <mxCell id="o6DXtAT2TfRtDLdUKLML-5" style="edgeStyle=orthogonalEdgeStyle;rounded=0;orthogonalLoop=1;jettySize=auto;html=1;exitX=1;exitY=0.5;exitDx=0;exitDy=0;" edge="1" parent="1" source="o6DXtAT2TfRtDLdUKLML-3" target="o6DXtAT2TfRtDLdUKLML-4">
          <mxGeometry relative="1" as="geometry" />
        </mxCell>
        <mxCell id="o6DXtAT2TfRtDLdUKLML-6" value="&lt;span style=&quot;font-size: 15px;&quot;&gt;&lt;font style=&quot;font-size: 15px;&quot;&gt;fork&lt;/font&gt;&lt;/span&gt;" style="edgeLabel;html=1;align=center;verticalAlign=middle;resizable=0;points=[];fontSize=15;fontStyle=1" vertex="1" connectable="0" parent="o6DXtAT2TfRtDLdUKLML-5">
          <mxGeometry x="0.0214" y="3" relative="1" as="geometry">
            <mxPoint as="offset" />
          </mxGeometry>
        </mxCell>
        <mxCell id="o6DXtAT2TfRtDLdUKLML-3" value="开源代码库" style="rounded=1;whiteSpace=wrap;html=1;fillColor=#fff2cc;strokeColor=#d6b656;fontStyle=1;fontSize=15;" vertex="1" parent="1">
          <mxGeometry x="190" y="150" width="120" height="60" as="geometry" />
        </mxCell>
        <mxCell id="o6DXtAT2TfRtDLdUKLML-4" value="你的远程代码库" style="rounded=1;whiteSpace=wrap;html=1;fillColor=#fff2cc;strokeColor=#d6b656;fontStyle=1;fontSize=15;" vertex="1" parent="1">
          <mxGeometry x="590" y="150" width="120" height="60" as="geometry" />
        </mxCell>
        <mxCell id="o6DXtAT2TfRtDLdUKLML-8" value="" style="rounded=0;whiteSpace=wrap;html=1;" vertex="1" parent="1">
          <mxGeometry x="520" y="300" width="230" height="180" as="geometry" />
        </mxCell>
        <mxCell id="o6DXtAT2TfRtDLdUKLML-7" value="你的本地代码库" style="rounded=1;whiteSpace=wrap;html=1;fillColor=#d5e8d4;strokeColor=#82b366;fontStyle=1;fontSize=15;" vertex="1" parent="1">
          <mxGeometry x="590" y="370" width="120" height="60" as="geometry" />
        </mxCell>
        <mxCell id="o6DXtAT2TfRtDLdUKLML-9" value="个人计算机" style="text;html=1;strokeColor=none;fillColor=none;align=center;verticalAlign=middle;whiteSpace=wrap;rounded=0;fontStyle=1;fontSize=16;" vertex="1" parent="1">
          <mxGeometry x="520" y="320" width="90" as="geometry" />
        </mxCell>
        <mxCell id="o6DXtAT2TfRtDLdUKLML-10" style="edgeStyle=orthogonalEdgeStyle;rounded=0;orthogonalLoop=1;jettySize=auto;html=1;exitX=0.5;exitY=1;exitDx=0;exitDy=0;entryX=0.5;entryY=0;entryDx=0;entryDy=0;" edge="1" parent="1" source="o6DXtAT2TfRtDLdUKLML-4" target="o6DXtAT2TfRtDLdUKLML-7">
          <mxGeometry relative="1" as="geometry" />
        </mxCell>
        <mxCell id="o6DXtAT2TfRtDLdUKLML-11" value="&lt;b&gt;&lt;font style=&quot;font-size: 15px;&quot;&gt;clone&lt;/font&gt;&lt;/b&gt;" style="edgeLabel;html=1;align=center;verticalAlign=middle;resizable=0;points=[];" vertex="1" connectable="0" parent="o6DXtAT2TfRtDLdUKLML-10">
          <mxGeometry x="-0.1375" y="1" relative="1" as="geometry">
            <mxPoint as="offset" />
          </mxGeometry>
        </mxCell>
      </root>
    </mxGraphModel>
  </diagram>
</mxfile>
